<svg width="240" height="240" viewBox="0 0 240 240" fill="none" xmlns="http://www.w3.org/2000/svg">
<path d="M135.137 190.104C142.737 190.104 145.637 193.771 148.637 195.604L124.247 195.604C123.403 195.604 122.968 194.648 123.599 194.088C125.662 192.257 129.313 190.104 135.137 190.104Z" fill="#E2E8F0"/>
<path d="M148.637 167.104L148.637 195.604M148.637 195.604C145.637 193.771 142.737 190.104 135.137 190.104C129.313 190.104 125.662 192.257 123.599 194.088C122.968 194.648 123.403 195.604 124.247 195.604L148.637 195.604Z" stroke="#E2E8F0" stroke-width="4"/>
<path d="M94.1367 190.104C101.737 190.104 104.637 193.771 107.637 195.604L83.247 195.604C82.4033 195.604 81.9679 194.648 82.5989 194.088C84.6625 192.257 88.3135 190.104 94.1367 190.104Z" fill="#E2E8F0"/>
<path d="M107.637 167.104L107.637 195.604M107.637 195.604C104.637 193.771 101.737 190.104 94.1367 190.104C88.3135 190.104 84.6625 192.257 82.5989 194.088C81.9679 194.648 82.4033 195.604 83.247 195.604L107.637 195.604Z" stroke="#E2E8F0" stroke-width="4"/>
<path d="M192.465 144.392C180.436 121.035 160.101 83.2034 147.499 91.1679C131.747 101.124 170.411 131.756 151.795 144.392C133.179 157.028 115.994 79.6805 99.0961 91.1679C82.1981 102.655 115.421 132.905 102.247 144.392C91.7068 153.582 73.6059 121.312 58.9991 96.5503" stroke="#E2E8F0" stroke-width="49.0909" stroke-linecap="round"/>
<path d="M92 120C92.4594 118.667 94.6648 116 99.8108 116C104.957 116 108.081 118.667 109 120" stroke="white" stroke-width="3.5" stroke-linecap="round"/>
<path d="M122 120C122.459 118.667 124.665 116 129.811 116C134.957 116 138.081 118.667 139 120" stroke="white" stroke-width="3.5" stroke-linecap="round"/>
<path d="M197 82C197.47 76.4482 188.665 75.196 183.5 75.4999C158 77 180.837 80.0282 197 82Z" fill="#E2E8F0"/>
<path d="M195.618 103.663C221.168 101.619 203.834 85.9742 197 82M197 82C197.47 76.4482 188.665 75.196 183.5 75.4999C158 77 180.837 80.0282 197 82Z" stroke="#E2E8F0" stroke-width="4"/>
<path d="M176.829 38.1937C178.798 32.1398 181.623 30.6926 184.249 31.5468C186.875 32.401 188.308 35.2331 186.339 41.287C184.369 47.3409 177.753 51.5168 177.753 51.5168C177.753 51.5168 174.86 44.2476 176.829 38.1937Z" fill="#E2E8F0"/>
<path d="M191.991 48.4102C194.485 46.0977 196.179 46.1572 197.182 47.2388C198.185 48.3204 198.117 50.0144 195.624 52.3269C193.13 54.6393 188.957 54.8668 188.957 54.8668C188.957 54.8668 189.498 50.7226 191.991 48.4102Z" fill="#E2E8F0"/>
<path d="M195.886 57.1415C198.396 57.1414 199.283 58.0239 199.283 59.1126C199.283 60.2014 198.396 61.084 195.886 61.0842C193.376 61.0843 191.004 59.1131 191.004 59.1131C191.004 59.1131 193.376 57.1417 195.886 57.1415Z" fill="#E2E8F0"/>
<path d="M205.141 51.3663C206.831 51.0331 207.554 51.5528 207.709 52.3392C207.864 53.1257 207.393 53.8809 205.702 54.2141C204.012 54.5473 202.133 53.4384 202.133 53.4384C202.133 53.4384 203.451 51.6995 205.141 51.3663Z" fill="#E2E8F0"/>
<path d="M39.6073 144.254C34.3814 146.186 28.7484 146.232 24.1011 141.781C14.4844 132.573 30.4316 139.593 39.6073 144.254Z" fill="#E2E8F0"/>
<path d="M61.5 130C58.5461 133.19 45.1951 142.187 39.6073 144.254M39.6073 144.254C34.3814 146.186 28.7484 146.232 24.1011 141.781C14.4844 132.573 30.4316 139.593 39.6073 144.254Z" stroke="#E2E8F0" stroke-width="4"/>
</svg>
