<svg width="71" height="40" viewBox="0 0 71 40" fill="none" xmlns="http://www.w3.org/2000/svg">
<path d="M14 27.6755C17.8755 20.1502 24.427 7.96164 28.4871 10.5276C33.5622 13.7352 21.1052 23.6044 27.103 27.6755C33.1009 31.7466 38.6373 6.82664 44.0815 10.5276C49.5258 14.2286 38.8219 23.9745 43.0665 27.6755C46.4622 30.6363 52.294 20.2394 57 12.2617" stroke="#6500C3" stroke-width="15.8161" stroke-linecap="round"/>
<path d="M37.8402 19.0114C37.8402 20.4304 37.4909 21.6996 36.9432 22.6034C36.3919 23.5131 35.6742 24.0052 34.9406 24.0052C34.2069 24.0052 33.4892 23.5131 32.9379 22.6034C32.3902 21.6996 32.0409 20.4304 32.0409 19.0114C32.0409 17.5924 32.3902 16.3232 32.9379 15.4194C33.4892 14.5097 34.2069 14.0176 34.9406 14.0176C35.6742 14.0176 36.3919 14.5097 36.9432 15.4194C37.4909 16.3232 37.8402 17.5924 37.8402 19.0114Z" fill="white" stroke="#0F172A" stroke-width="0.64436"/>
<path d="M37.8388 19.0113C37.8388 19.8953 37.6164 20.6803 37.2737 21.2338C36.928 21.7923 36.4924 22.072 36.0668 22.072C35.6412 22.072 35.2057 21.7923 34.86 21.2338C34.5173 20.6803 34.2948 19.8953 34.2948 19.0113C34.2948 18.1273 34.5173 17.3424 34.86 16.7888C35.2057 16.2303 35.6412 15.9506 36.0668 15.9506C36.4924 15.9506 36.928 16.2303 37.2737 16.7888C37.6164 17.3424 37.8388 18.1273 37.8388 19.0113Z" fill="#0F172A" stroke="#0F172A" stroke-width="0.64436"/>
<path d="M46.2191 19.0114C46.2191 20.4304 45.8698 21.6996 45.3221 22.6034C44.7708 23.5131 44.0531 24.0052 43.3195 24.0052C42.5858 24.0052 41.8682 23.5131 41.3168 22.6034C40.7691 21.6996 40.4198 20.4304 40.4198 19.0114C40.4198 17.5924 40.7691 16.3232 41.3168 15.4194C41.8682 14.5097 42.5858 14.0176 43.3195 14.0176C44.0531 14.0176 44.7708 14.5097 45.3221 15.4194C45.8698 16.3232 46.2191 17.5924 46.2191 19.0114Z" fill="white" stroke="#0F172A" stroke-width="0.64436"/>
<path d="M46.2177 19.0113C46.2177 19.8953 45.9953 20.6803 45.6526 21.2338C45.3069 21.7923 44.8714 22.072 44.4457 22.072C44.0201 22.072 43.5846 21.7923 43.2389 21.2338C42.8962 20.6803 42.6737 19.8953 42.6737 19.0113C42.6737 18.1273 42.8962 17.3424 43.2389 16.7888C43.5846 16.2303 44.0201 15.9506 44.4457 15.9506C44.8714 15.9506 45.3069 16.2303 45.6526 16.7888C45.9953 17.3424 46.2177 18.1273 46.2177 19.0113Z" fill="#0F172A" stroke="#0F172A" stroke-width="0.64436"/>
</svg>
