<svg width="64" height="64" viewBox="0 0 64 64" fill="none" xmlns="http://www.w3.org/2000/svg">
<path fill-rule="evenodd" clip-rule="evenodd" d="M37.9454 5.33337H26.6654C14.8833 5.33337 5.33203 14.8846 5.33203 26.6667V37.9734C5.33203 49.7554 14.8833 59.3067 26.6654 59.3067H37.9454C49.7274 59.3067 59.2787 49.7554 59.2787 37.9734V26.6667C59.2787 14.8846 49.7274 5.33337 37.9454 5.33337ZM21.652 16.32C24.5975 16.32 26.9854 18.7079 26.9854 21.6534C26.9854 24.5989 24.5975 26.9867 21.652 26.9867C18.7065 26.9867 16.3187 24.5989 16.3187 21.6534C16.3187 18.7079 18.7065 16.32 21.652 16.32ZM41.3587 53.6534C48.9084 50.8339 53.9218 43.6323 53.9454 35.5734L53.8654 30.9867C53.8654 29.8934 53.652 27.84 53.652 27.84H49.3054C39.2424 27.8706 30.0536 33.5633 25.5454 42.56C22.2731 39.6348 18.0411 38.0122 13.652 38H10.4254C10.1873 44.1993 13.5545 49.9775 19.0654 52.8267C21.0354 53.8762 23.2332 54.4256 25.4654 54.4267H36.5854C38.2094 54.4499 39.825 54.1882 41.3587 53.6534Z" fill="#E2E8F0"/>
</svg>
